<?xml version="1.0" encoding="UTF-8"?>
<svg width="199px" height="45px" viewBox="0 0 199 45" version="1.1" xmlns="http://www.w3.org/2000/svg" xmlns:xlink="http://www.w3.org/1999/xlink">
    <!-- Generator: Sketch 64 (93537) - https://sketch.com -->
    <title>Webpage logo </title>
    <desc>Created with Sketch.</desc>
    <g id="Color-Palatte" stroke="none" stroke-width="1" fill="none" fill-rule="evenodd">
        <g id="Webpage-logo-" transform="translate(-1.000000, 0.000000)">
            <text id="Smartbox" font-family="Heebo-Regular, Heebo" font-size="31.06" font-weight="normal" fill="#000000">
                <tspan x="0" y="39">Smartbox</tspan>
            </text>
            <g id="Group" transform="translate(155.000000, 0.000000)">
                <path d="M2.9789359,33.1110516 L21.7014956,24.3184654 C22.2293984,24.070549 22.8392188,24.0654138 23.3712217,24.304405 L41.9987417,32.6724285 C43.0063129,33.1250587 43.4561814,34.3087858 43.0035511,35.316357 C42.802906,35.7630003 42.445385,36.1205213 41.9987417,36.3211664 L23.3315269,44.707022 C22.8225639,44.9356629 22.2412281,44.9412983 21.7279284,44.7225669 L3.04506351,36.761274 C2.02890715,36.3282612 1.55617583,35.1534776 1.98918857,34.1373212 C2.18182532,33.6852582 2.53414681,33.3199358 2.9789359,33.1110516 Z" id="Rectangle" fill="#4A987B"></path>
                <path d="M1.16449954,9.62764337 L20.1644995,0.891580089 C21.1680693,0.430145927 22.3556897,0.869633677 22.8171238,1.87320345 C22.937615,2.13525881 23,2.42027518 23,2.70870391 L23,23.8106279 C23,24.5991537 22.5366853,25.314081 21.8169416,25.6361707 L2.81694157,34.138787 C1.80872213,34.5899714 0.625641586,34.1384053 0.174457214,33.1301858 C0.0594489749,32.8731877 -2.52012646e-15,32.5948023 0,32.3132443 L0,11.4447672 C-9.56625754e-17,10.663623 0.454781667,9.95396654 1.16449954,9.62764337 Z" id="Rectangle" fill="#65D0A8"></path>
                <path d="M25.8219562,1.8902865 L43.8219562,10.0048525 C44.5389957,10.3281006 45,11.0416095 45,11.828143 L45,33.2419316 C45,34.3465011 44.1045695,35.2419316 43,35.2419316 C42.7032641,35.2419316 42.4102463,35.1759023 42.14219,35.0486308 L24.14219,26.5023386 C23.4445878,26.1711213 23,25.4678789 23,24.6956394 L23,3.71357695 C23,2.60900745 23.8954305,1.71357695 25,1.71357695 C25.283411,1.71357695 25.5635859,1.77381079 25.8219562,1.8902865 Z" id="Rectangle" fill="#ABE5CF"></path>
            </g>
        </g>
    </g>
</svg>