<?xml version="1.0" encoding="UTF-8"?>
<svg width="191px" height="45px" viewBox="0 0 191 45" version="1.1" xmlns="http://www.w3.org/2000/svg" xmlns:xlink="http://www.w3.org/1999/xlink">
    <!-- Generator: Sketch 62 (91390) - https://sketch.com -->
    <title>Group 2</title>
    <desc>Created with Sketch.</desc>
    <g id="Color-Palatte" stroke="none" stroke-width="1" fill="none" fill-rule="evenodd">
        <g id="Group-2" transform="translate(-1.000000, 0.000000)">
            <g id="Group-4" fill="#000000" font-family="Heebo-Regular, Heebo" font-size="31.06" font-weight="normal">
                <text id="Smartbox">
                    <tspan x="0" y="33">Smartbox</tspan>
                </text>
            </g>
            <g id="Group" transform="translate(148.000000, 0.000000)">
                <path d="M3.6487304,32.666523 L10.3396891,29.2417066 L10.3396891,29.2417066 L21.6425213,23.4562689 C22.2035877,23.169083 22.8672051,23.1631854 23.4332869,23.4403544 L41.331401,32.2037548 C42.3234398,32.6894838 42.733885,33.8874514 42.248156,34.8794902 C42.0528427,35.2783924 41.7303032,35.6009319 41.331401,35.7962452 L23.3906862,44.5805041 C22.8487538,44.8458488 22.2159908,44.8523383 21.6687303,44.5981639 L3.71754006,36.2607587 C2.71574795,35.7954778 2.28081972,34.6061801 2.74610066,33.604388 C2.93398175,33.1998629 3.25169292,32.8697495 3.6487304,32.666523 Z" id="Rectangle" fill="#161D1B"></path>
                <path d="M2.23811281,9.61236175 L19.6131128,1.0161185 C20.603141,0.526304235 21.8027903,0.931807717 22.2926046,1.92183588 C22.429028,2.19757919 22.5,2.50107763 22.5,2.80872307 L22.5,23.8500077 C22.5,24.618289 22.0599083,25.3186609 21.3676979,25.6519789 L3.99269791,34.0185115 C2.99749667,34.4977278 1.80224508,34.0794394 1.32302876,33.0842382 C1.1926853,32.8135505 1.125,32.5169754 1.125,32.2165403 L1.125,11.4049663 C1.125,10.6443877 1.55640448,9.94963546 2.23811281,9.61236175 Z" id="Rectangle" fill="#525C58"></path>
                <path d="M25.3417824,1.93668347 L42.7167824,9.99852327 C43.4230957,10.3262461 43.875,11.0341052 43.875,11.8127455 L43.875,33.2021157 C43.875,34.3066852 42.9795695,35.2021157 41.875,35.2021157 C41.5706567,35.2021157 41.2703273,35.1326586 40.9968872,34.9990347 L23.6218872,26.508274 C22.9353705,26.1727892 22.5,25.4754592 22.5,24.711355 L22.5,3.75090572 C22.5,2.64633622 23.3954305,1.75090572 24.5,1.75090572 C24.7907625,1.75090572 25.0780285,1.81430409 25.3417824,1.93668347 Z" id="Rectangle" fill="#CAD2CF"></path>
            </g>
        </g>
    </g>
</svg>