<svg width="125" height="125" viewBox="0 0 125 125" fill="none" xmlns="http://www.w3.org/2000/svg">
<rect width="125" height="125" rx="10" fill="#1B2C1D"/>
<rect x="59.5417" y="81.6064" width="4.33333" height="29.5374" fill="#D0E3AE"/>
<path d="M72.542 90.127L62.792 93.5705L62.792 86.6835L72.542 90.127Z" fill="#D0E3AE"/>
<path d="M49.7917 100.351L60.3542 96.9079L60.3542 103.795L49.7917 100.351Z" fill="#D0E3AE"/>
<ellipse cx="30.2917" cy="88.4228" rx="21.125" ry="7.38435" fill="#D0E3AE"/>
<path d="M19.4585 80L21.0835 82.6592L22.1668 84.2548L24.8752 87.8547H28.6668H33.0002H37.8752H41.6668H44.3752H47.0835H49.7918H51.4168" stroke="#1B2C1D"/>
<path d="M36.1777 80.0411L36.7958 80.8938L39.2678 84.3049L41.7399 87.7159" stroke="#1B2C1D"/>
<path d="M7 87.8547H12.4167H16.75H20H23.25H26.5" stroke="#1B2C1D"/>
<path d="M25.4167 97.0191L27.0417 95.4236L28.1251 94.1029L29.2084 92.9669L30.8334 91.1688L31.9167 90.1051L33.0001 89.0414L34.0834 87.9777" stroke="#1B2C1D"/>
<path d="M34.6251 88.5097L32.4584 90.637L31.3751 91.7007L30.2917 92.7644L29.2084 93.8281L28.1251 94.8918L27.0417 96.4874" stroke="#1B2C1D"/>
<ellipse cx="91.5002" cy="99.2153" rx="21.125" ry="7.38435" transform="rotate(-180 91.5002 99.2153)" fill="#D0E3AE"/>
<path d="M102.876 106.6L101.165 104.328L98.3143 99.7834L94.3231 99.7834L89.7617 99.7834L84.6301 99.7834L80.6389 99.7834L77.788 99.7834L74.9371 99.7834L72.0863 99.7834L70.3757 99.7834" stroke="#1B2C1D"/>
<path d="M86.6257 107.168L84.4591 104.896L82.2924 102.624L79.5841 99.7836" stroke="#1B2C1D"/>
<path d="M115.875 99.7834L112.555 99.7834L107.243 99.7834L103.259 99.7834L99.2755 99.7834L95.2917 99.7834" stroke="#1B2C1D"/>
<path d="M96.3752 91.263L94.7502 92.7645L93.1252 94.3601L91.7465 95.8072L90.5646 96.9433L87.7086 99.7834" stroke="#1B2C1D"/>
<path d="M89.333 99.1466L90.4163 98.0829L92.0413 96.4874L93.6663 94.8919L95.2913 93.2963L96.9163 91.7008" stroke="#1B2C1D"/>
<path d="M70.3755 99.1467H73.0838H75.2505H77.9588H87.7088H113.167" stroke="#1B2C1D"/>
<path d="M80.667 100.21L87.167 106.593L87.7087 107.124" stroke="#1B2C1D"/>
<path d="M99.0835 99.6784L100.708 101.806L101.792 103.401L103.417 105.529L104.5 106.592" stroke="#1B2C1D"/>
<path d="M9.16675 88.5097H10.7917H12.9584H53.0417" stroke="#1B2C1D"/>
<path d="M37.8755 81.064L39.5005 83.1914L40.5838 84.7869L41.6672 86.3824L42.7505 87.978" stroke="#1B2C1D"/>
<path d="M25.9587 87.978L24.3337 85.8506L23.2504 84.255L22.1671 82.6595L21.0837 81.064" stroke="#1B2C1D"/>
<ellipse cx="61.8596" cy="45.1046" rx="30.875" ry="30.6735" fill="#F0577C"/>
<ellipse cx="62.9437" cy="38.2881" rx="28.7083" ry="30.6735" fill="#F0577C"/>
<path d="M42.02 11.8549L57.0024 8.02269L36.1831 26.8239L42.02 11.8549Z" fill="#F0577C"/>
<path d="M83.3594 12.092L89.3339 27.0012L68.3424 8.41169L83.3594 12.092Z" fill="#F0577C"/>
<path d="M56.541 75.9795L60.3327 73.1394L61.416 72.0033L63.041 70.2992L64.1244 68.5951L65.2077 66.8911L66.8327 64.619L67.916 62.3468L68.9994 60.0747L70.0827 57.8026L70.6244 56.0985L71.166 53.8264V51.5543V50.9863L70.0827 50.4183L68.9994 49.8502L67.3744 48.7142L65.7494 47.5781L64.1244 46.4421L63.4363 45.8741L61.9577 44.738L60.8744 43.6019L60.3327 43.0339L59.791 42.4659L58.7077 41.3298L57.6244 40.1938L55.9994 38.4897L53.8327 36.2176L52.3955 34.5135L50.041 31.6734L48.416 29.4013L46.791 27.1292L45.166 24.289L43.541 20.3128L41.916 11.2244" stroke="#1B2C1D"/>
<path d="M71.1667 50.9865L74.9584 52.6905L78.2084 53.8266L81.4584 54.9627L84.1667 55.5307L91.2084 56.0987" stroke="#1B2C1D"/>
<path d="M51.1247 32.8095L50.583 36.2177L50.0413 37.9217L48.958 40.7619L47.8747 43.034L46.7913 45.3061L45.1663 48.1462L42.458 52.1224L39.7497 54.9626L34.333 59.5068" stroke="#1B2C1D"/>
<path d="M62.5 44.7381L66.2917 41.3299L70.0833 37.9217L72.7917 34.5136L75.5 31.1054L77.6667 27.6973L79.2917 24.2891L80.9167 20.3129L84.1667 11.7925" stroke="#1B2C1D"/>
<path d="M43.5413 20.313L47.8746 22.5851L52.7496 24.2892L57.0829 24.8572H61.9579H66.2913L70.6246 24.2892L75.4996 23.1531L79.8329 20.881L80.3746 20.313L80.9163 19.7449" stroke="#1B2C1D"/>
<path d="M56.5417 7.8162L56.0001 8.95225L55.4584 10.0883L54.9167 11.2244V12.3604V14.6325V18.0407V19.1767V20.8808L55.4584 22.0169L56.0001 23.1529L56.5417 24.289L57.0834 24.857" stroke="#1B2C1D"/>
<path d="M66.8326 24.289L67.3743 23.153L67.9159 21.4489L68.4576 19.7448V16.9047V14.6326V12.9285L67.9159 11.2244L67.3743 9.52034L66.8326 8.38428L65.7493 7.24823" stroke="#1B2C1D"/>
<path d="M56 24.4265L54.9167 22.2991L54.375 21.2354V20.1717V18.5761V16.4488V14.8532V12.7258V11.1303L54.9167 10.0666L55.4583 9.0029L56 7.9392" stroke="#1B2C1D"/>
<path d="M34.875 60.0603L37.0417 58.4648L39.2083 56.8692L40.8333 55.2737L42.4583 53.6782L44.0833 51.5508L45.7083 48.8915L47.875 45.1686L48.9583 42.5094L50.0417 39.8501L51.125 37.1909L51.6667 35.0635" stroke="#1B2C1D"/>
<path d="M58.1663 75.484L60.8746 73.8884L63.5829 71.2292L65.7496 68.0381L67.9163 64.847L69.5413 61.1241L71.1663 57.933L71.7079 55.8056V53.6782V52.6145V52.0827" stroke="#1B2C1D"/>
<ellipse cx="61.8596" cy="45.1046" rx="30.875" ry="30.6735" fill="#F0577C"/>
<ellipse cx="62.9437" cy="38.2881" rx="28.7083" ry="30.6735" fill="#F0577C"/>
<path d="M42.02 11.8549L57.0024 8.02269L36.1831 26.8239L42.02 11.8549Z" fill="#F0577C"/>
<path d="M83.3594 12.092L89.3339 27.0012L68.3424 8.41169L83.3594 12.092Z" fill="#F0577C"/>
<path d="M56.541 75.9795L60.3327 73.1394L61.416 72.0033L63.041 70.2992L64.1244 68.5951L65.2077 66.8911L66.8327 64.619L67.916 62.3468L68.9994 60.0747L70.0827 57.8026L70.6244 56.0985L71.166 53.8264V51.5543V50.9863L70.0827 50.4183L68.9994 49.8502L67.3744 48.7142L65.7494 47.5781L64.1244 46.4421L63.4363 45.8741L61.9577 44.738L60.8744 43.6019L60.3327 43.0339L59.791 42.4659L58.7077 41.3298L57.6244 40.1938L55.9994 38.4897L53.8327 36.2176L52.3955 34.5135L50.041 31.6734L48.416 29.4013L46.791 27.1292L45.166 24.289L43.541 20.3128L41.916 11.2244" stroke="#1B2C1D"/>
<path d="M71.1667 50.9865L74.9584 52.6905L78.2084 53.8266L81.4584 54.9627L84.1667 55.5307L91.2084 56.0987" stroke="#1B2C1D"/>
<path d="M51.1247 32.8095L50.583 36.2177L50.0413 37.9217L48.958 40.7619L47.8747 43.034L46.7913 45.3061L45.1663 48.1462L42.458 52.1224L39.7497 54.9626L34.333 59.5068" stroke="#1B2C1D"/>
<path d="M62.5 44.7381L66.2917 41.3299L70.0833 37.9217L72.7917 34.5136L75.5 31.1054L77.6667 27.6973L79.2917 24.2891L80.9167 20.3129L84.1667 11.7925" stroke="#1B2C1D"/>
<path d="M43.5413 20.313L47.8746 22.5851L52.7496 24.2892L57.0829 24.8572H61.9579H66.2913L70.6246 24.2892L75.4996 23.1531L79.8329 20.881L80.3746 20.313L80.9163 19.7449" stroke="#1B2C1D"/>
<path d="M56.5417 7.8162L56.0001 8.95225L55.4584 10.0883L54.9167 11.2244V12.3604V14.6325V18.0407V19.1767V20.8808L55.4584 22.0169L56.0001 23.1529L56.5417 24.289L57.0834 24.857" stroke="#1B2C1D"/>
<path d="M66.8326 24.289L67.3743 23.153L67.9159 21.4489L68.4576 19.7448V16.9047V14.6326V12.9285L67.9159 11.2244L67.3743 9.52034L66.8326 8.38428L65.7493 7.24823" stroke="#1B2C1D"/>
<path d="M56 24.4265L54.9167 22.2991L54.375 21.2354V20.1717V18.5761V16.4488V14.8532V12.7258V11.1303L54.9167 10.0666L55.4583 9.0029L56 7.9392" stroke="#1B2C1D"/>
<path d="M34.875 60.0603L37.0417 58.4648L39.2083 56.8692L40.8333 55.2737L42.4583 53.6782L44.0833 51.5508L45.7083 48.8915L47.875 45.1686L48.9583 42.5094L50.0417 39.8501L51.125 37.1909L51.6667 35.0635" stroke="#1B2C1D"/>
<path d="M58.1663 75.484L60.8746 73.8884L63.5829 71.2292L65.7496 68.0381L67.9163 64.847L69.5413 61.1241L71.1663 57.933L71.7079 55.8056V53.6782V52.6145V52.0827" stroke="#1B2C1D"/>
<path d="M44.4038 21.7673L46.2502 22.831L47.8752 23.3629L50.0418 24.4266L52.7502 24.9584L55.4585 25.4903L57.0835 25.7754H58.7085H60.8752H63.5835H65.7502L67.9168 25.4903L71.1668 24.9584L73.8752 24.4266L76.0418 23.8947L79.2918 22.2992L79.8335 21.2355" stroke="#1B2C1D"/>
<path d="M67.3747 24.4265L68.458 22.831L68.7122 21.7673L68.9997 20.7036V19.6399V18.0444V16.9807V15.3851V13.7896V12.7259L68.7122 11.1303L68.458 10.0666L67.9163 9.00295L67.3747 7.93926L66.833 7.40741" stroke="#1B2C1D"/>
<path d="M90.6659 56.8693H89.0409H87.4159L84.1659 56.3374L81.9992 55.8056L78.7492 54.9229L75.3162 53.6782L72.7909 52.6145L69.5409 51.019L66.2909 48.8916L63.0409 46.7642L60.3326 44.6368L58.1659 41.9776L54.9159 38.7865L53.2909 36.6591L49.4993 32.4043L46.7909 28.1496L44.0826 23.3629L42.9993 20.1718L42.4576 18.0445L41.9159 15.3852L41.3743 12.726V11.6623" stroke="#1B2C1D"/>
<path d="M63.0417 45.7005L64.1251 44.6368L65.7501 43.0413L67.3751 41.4458L68.4584 40.3821L70.0834 38.7865L71.7084 37.191L73.3334 35.5954L74.9584 33.4681L76.5834 31.3407L78.2084 28.6814L79.2917 26.554L80.3751 24.4266L80.9167 22.8311L81.4584 21.2356L82.0001 19.64L82.5417 18.0445L83.0834 16.4489L84.1667 13.7897L84.7084 12.726" stroke="#1B2C1D"/>
<path d="M65.7493 24.9585L67.3743 22.8312L68.4576 20.7038" stroke="#1B2C1D"/>
</svg>
