<svg width="35" height="35" viewBox="0 0 35 35" fill="none" xmlns="http://www.w3.org/2000/svg">
<rect width="35" height="35" rx="4" fill="#1B2C1D"/>
<ellipse cx="17.5153" cy="18.9827" rx="11.1594" ry="13.2019" fill="#F0577C"/>
<ellipse cx="17.9068" cy="16.0489" rx="10.3763" ry="13.2019" fill="#F0577C"/>
<path d="M10.3445 4.67197L15.7597 3.0226L8.23481 11.1146L10.3445 4.67197Z" fill="#F0577C"/>
<path d="M25.2859 4.77397L27.4453 11.1909L19.8582 3.18997L25.2859 4.77397Z" fill="#F0577C"/>
<path d="M15.5927 32.2712L16.9631 31.0488L17.3547 30.5599L17.942 29.8264L18.3336 29.093L18.7251 28.3595L19.3125 27.3816L19.704 26.4037L20.0956 25.4258L20.4871 24.4479L20.6829 23.7144L20.8787 22.7365V21.7586V21.5141L20.4871 21.2696L20.0956 21.0252L19.5082 20.5362L18.9209 20.0472L18.3336 19.5583L18.0849 19.3138L17.5505 18.8249L17.1589 18.3359L16.9631 18.0914L16.7673 17.8469L16.3758 17.358L15.9842 16.869L15.3969 16.1356L14.6138 15.1577L14.0943 14.4242L13.2433 13.2018L12.656 12.2239L12.0686 11.246L11.4813 10.0236L10.894 8.31224L10.3066 4.40057" stroke="#1B2C1D"/>
<path d="M20.8792 21.5142L22.2496 22.2477L23.4243 22.7366L24.5989 23.2256L25.5778 23.4701L28.123 23.7145" stroke="#1B2C1D"/>
<path d="M13.6351 13.6908L13.4393 15.1577L13.2435 15.8912L12.8519 17.1136L12.4604 18.0915L12.0688 19.0694L11.4815 20.2918L10.5026 22.0031L9.5237 23.2255L7.56592 25.1814" stroke="#1B2C1D"/>
<path d="M17.7468 18.8249L19.1173 17.358L20.4877 15.8911L21.4666 14.4243L22.4455 12.9574L23.2286 11.4905L23.816 10.0236L24.4033 8.31229L25.578 4.6451" stroke="#1B2C1D"/>
<path d="M10.8943 8.31232L12.4605 9.29024L14.2225 10.0237L15.7888 10.2682H17.5508H19.117L20.6832 10.0237L22.4452 9.53472L24.0115 8.5568L24.2072 8.31232L24.403 8.06784" stroke="#1B2C1D"/>
<path d="M15.593 2.93369L15.3972 3.42264L15.2014 3.9116L15.0056 4.40056V4.88952V5.86744V7.33431V7.82327V8.55671L15.2014 9.04567L15.3972 9.53463L15.593 10.0236L15.7887 10.2681" stroke="#1B2C1D"/>
<path d="M19.3127 10.0237L19.5085 9.5347L19.7043 8.80127L19.9 8.06783V6.84543V5.86752V5.13408L19.7043 4.40064L19.5085 3.6672L19.3127 3.17824L18.9211 2.68929" stroke="#1B2C1D"/>
<path d="M15.3974 10.0828L15.0058 9.16716L14.8101 8.70935V8.25153V7.56481V6.64918V5.96246V5.04683V4.36011L15.0058 3.90229L15.2016 3.44448L15.3974 2.98666" stroke="#1B2C1D"/>
<path d="M7.6665 25.7712L8.54508 24.7329L9.32819 24.0461L9.91553 23.3594L10.5029 22.6727L11.0902 21.7571L11.6775 20.6125L12.4606 19.0102L12.8522 17.8656L13.2438 16.7211L13.6353 15.5766L13.8311 14.6609" stroke="#1B2C1D"/>
<path d="M16.1804 32.058L17.1593 31.3712L18.1382 30.2267L18.9213 28.8533L19.7044 27.4798L20.2918 25.8775L20.8791 24.504L21.0749 23.5884V22.6728V22.2149V21.986" stroke="#1B2C1D"/>
<path d="M10.6665 7.77124L12.2919 8.97413L12.8423 9.20843L13.5761 9.67702L14.4934 9.91132L15.4107 10.1456L15.9611 10.2712H16.5115H17.2453H18.1626H18.8965L19.6303 10.1456L20.7311 9.91132L21.6484 9.67702L22.3823 9.44273L23.483 8.73983L24.6665 7.77124" stroke="#1B2C1D"/>
<path d="M19.6665 10.2712V9.52124V9.02124V8.52124V8.02124V7.27124V6.77124V6.02124V5.27124V4.77124V4.02124V3.52124V3.02124V2.52124V2.27124" stroke="#1B2C1D"/>
<path d="M29.1665 23.2712H27.0731H26.4797L25.2929 23.0477L24.5017 22.8242L23.3149 22.4532L22.0612 21.9301L21.139 21.483L19.9522 20.8124L18.7654 19.9183L17.5786 19.0242L16.5896 18.1301L15.7984 17.0124L14.6116 15.6712L14.0182 14.7771L12.6335 12.9889L11.6445 11.2007L10.6555 9.18889L10.2599 7.84771L10.0621 6.95359L9.86431 5.83595L9.6665 4.7183V4.27124" stroke="#1B2C1D"/>
<path d="M17.6665 19.2712L18.0665 18.8196L18.6665 18.1422L19.2665 17.4648L19.6665 17.0132L20.2665 16.3358L20.8665 15.6583L21.4665 14.9809L22.0665 14.0777L22.6665 13.1745L23.2665 12.0454L23.6665 11.1422L24.0665 10.239L24.2665 9.56156L24.4665 8.88414L24.6665 8.20672L24.8665 7.5293L25.0665 6.85189L25.4665 5.72285L25.6665 5.27124" stroke="#1B2C1D"/>
<path d="M18.6665 10.2712L19.2665 9.27124L19.6665 8.27124" stroke="#1B2C1D"/>
</svg>
