<svg width="137" height="160" viewBox="0 0 137 160" fill="none" xmlns="http://www.w3.org/2000/svg">
<rect width="112" height="136" rx="2" fill="#01BACB"/>
<rect x="6.625" y="7.25001" width="99.75" height="121.5" rx="1" fill="#F4F8F9"/>
<path d="M60.4689 95.8402H58.6154L59.2332 90.5323L62.0135 85.5192L65.1027 81.6857L69.1187 78.7368L74.6793 74.6084L86.4182 65.7619L91.052 60.7488L93.2145 56.9153L96 51L94.4502 56.9153L92.2877 62.2232L89.8164 67.2363L85.1826 73.7238L79.622 79.3266L75.2971 83.1601L71.59 86.6988L69.1187 89.0578L66.9562 91.4169L65.4116 93.4811L64.4849 94.9556L63.5581 96.7249L62.9403 97.3147L62.0135 96.43L60.4689 95.8402Z" fill="url(#paint0_linear)"/>
<path d="M96 51L94.4502 56.9153L92.2877 62.2232L89.8164 67.2363L85.1826 73.7238L79.622 79.3266L75.2971 83.1601L71.59 86.6988L69.1187 89.0578L66.9562 91.4169L65.4116 93.4811L64.4849 94.9556L63.5581 96.7249L62.9403 97.3147L62.0135 96.43L60.4689 95.8402H58.6154L59.2332 90.5323L62.0135 85.5192L65.1027 81.6857L69.1187 78.7368L74.6793 74.6084L86.4182 65.7619L91.052 60.7488L93.2145 56.9153L96 51ZM96 51V47L95.5 44.5" stroke="url(#paint1_linear)"/>
<rect x="48.0231" y="112.655" width="13.9769" height="5.49715" rx="1" fill="#4E595A"/>
<ellipse cx="55.0115" cy="117.877" rx="6.98846" ry="4.12286" fill="#4E595A"/>
<ellipse cx="55.0115" cy="113.479" rx="6.98846" ry="3.02343" fill="#4E595A"/>
<path d="M54.2539 96.12H57.9923L58.6154 90.744L60.7962 86.5627L64.5346 81.784L73.5692 75.2133L80.1116 70.4347L86.0308 65.656L89.7692 61.4747L92.5731 57.2933L95.6885 50.424V42.36L94.4423 35.7893L91.95 30.712L88.5231 25.336L86.9654 23.8427L80.5 18.5L73 14.5L76.3731 16.376L79.4885 19.96L80.7346 22.3493L82.2923 26.232L82.9154 31.608L82.2923 35.192L80.7346 39.9707L77.3077 44.152L72.9462 48.3333L67.9616 52.216L61.4192 55.8L55.1885 59.384L49.5808 63.5653L44.9077 68.0453L42.1039 72.5253L40.2346 77.0053L39.9231 82.68V87.16L41.1692 90.1467L45.5308 95.224L47.7116 97.6133L51.1385 96.12H54.2539Z" fill="url(#paint2_linear)" stroke="url(#paint3_linear)"/>
<path d="M39.6115 87.4587L40.5461 90.1467L27.4615 76.408L23.1 70.7333L22.7885 67.448L23.4115 61.7733L25.5923 56.0987L29.3308 50.7227L34.3154 46.2427L40.5461 42.0613L44.5961 39.3733L49.2692 35.192L52.6961 31.3093L54.2538 29.2187L55.1885 27.128L55.8115 24.44V21.1547L55.1885 19.3627L54.2538 17.272L52.6961 15.7787L51.1385 14.584L48.9577 13.3893L46.4654 12.792L40 13.5L46.7769 11.5973L50.2038 11H60.1731L63.6 11.5973L67.3385 12.4933L71.0769 13.688L72.9461 14.584L74.1923 15.48L76.0615 16.6747L76.9961 17.8693L78.2423 19.3627L79.1769 20.2587L80.1115 22.0507L81.0461 24.44L81.6692 26.232L81.9808 28.92L82.2923 31.608L81.6692 35.192L81.0461 36.984L80.4231 39.3733L80.1115 39.9707L79.1769 41.1653L77.6192 42.9573L76.3731 44.4507L74.5038 46.2427L72.3231 48.0347L69.8308 50.1253L68.2731 51.32L67.3385 51.9173L63.2885 54.3067L59.8615 56.0987L56.7461 57.8907L53.3192 60.28L50.8269 62.072L48.3346 64.1627L46.1538 66.2533L44.5961 67.7467L43.6615 68.9413L41.1692 73.4213L39.6115 77.0053L39.3 81.4853V86.5627L39.6115 87.4587Z" fill="url(#paint4_linear)" stroke="url(#paint5_linear)"/>
<path d="M22.7885 67.7467V70.4347L20.9192 67.7467L17.4923 60.5787L15.9346 55.5013L15 51.6187V44.4507L15.3115 40.2693L15.9346 36.088L17.8038 31.608L20.2962 27.4267L22.4769 24.44L24.9692 22.0507L27.7731 19.6613L30.8885 17.5707L34.3154 15.48L39.3 13.688L41.4808 13.0907H43.9731L48.0231 13.3893L50.5154 14.584L53.9423 17.5707L55.5 21.1547V24.44L54.8769 27.128L53.9423 29.2187L52.6962 31.0107L49.2692 34.5947L43.0385 39.9707L34.0038 46.2427L29.3308 50.424L25.2808 55.8L22.7885 62.072V67.7467Z" fill="url(#paint6_linear)" stroke="url(#paint7_linear)"/>
<ellipse cx="55.5" cy="97.6133" rx="7.47692" ry="2.688" fill="#4E595A"/>
<path d="M74.3442 96.3026L107.52 120.908L98.2638 130.092L74.3442 96.3026Z" fill="#01BACB"/>
<path d="M131.44 154.697L98.264 130.092L107.52 120.908L131.44 154.697Z" fill="#035860"/>
<path d="M86.0417 107.706L104.954 123.454L101.387 126.994L86.0417 107.706Z" fill="#F0F3E0"/>
<path d="M120.299 142.743L101.387 126.994L104.954 123.454L120.299 142.743Z" fill="#F0F3E0"/>
<defs>
<linearGradient id="paint0_linear" x1="77.3077" y1="44.5" x2="77.3077" y2="97.3147" gradientUnits="userSpaceOnUse">
<stop stop-color="#D3EA5C"/>
<stop offset="1" stop-color="#D3EA5C" stop-opacity="0"/>
</linearGradient>
<linearGradient id="paint1_linear" x1="77.3077" y1="44.5" x2="77.3077" y2="97.3147" gradientUnits="userSpaceOnUse">
<stop stop-color="#D3EA5C"/>
<stop offset="1" stop-color="#D3EA5C" stop-opacity="0"/>
</linearGradient>
<linearGradient id="paint2_linear" x1="67.8058" y1="14.5" x2="67.8058" y2="97.6133" gradientUnits="userSpaceOnUse">
<stop stop-color="#01BACB"/>
<stop offset="1" stop-color="#01BACB" stop-opacity="0"/>
</linearGradient>
<linearGradient id="paint3_linear" x1="67.8058" y1="14.5" x2="67.8058" y2="97.6133" gradientUnits="userSpaceOnUse">
<stop stop-color="#01BACB"/>
<stop offset="1" stop-color="#01BACB" stop-opacity="0"/>
</linearGradient>
<linearGradient id="paint4_linear" x1="52.5404" y1="11" x2="52.5404" y2="90.1467" gradientUnits="userSpaceOnUse">
<stop stop-color="#D3EA5C"/>
<stop offset="1" stop-color="#D3EA5C" stop-opacity="0"/>
</linearGradient>
<linearGradient id="paint5_linear" x1="52.5404" y1="11" x2="52.5404" y2="90.1467" gradientUnits="userSpaceOnUse">
<stop stop-color="#D3EA5C"/>
<stop offset="1" stop-color="#D3EA5C" stop-opacity="0"/>
</linearGradient>
<linearGradient id="paint6_linear" x1="35.25" y1="13.0907" x2="35.25" y2="70.4347" gradientUnits="userSpaceOnUse">
<stop stop-color="#01BACB"/>
<stop offset="1" stop-color="#01BACB" stop-opacity="0"/>
</linearGradient>
<linearGradient id="paint7_linear" x1="35.25" y1="13.0907" x2="35.25" y2="70.4347" gradientUnits="userSpaceOnUse">
<stop stop-color="#01BACB"/>
<stop offset="1" stop-color="#01BACB" stop-opacity="0"/>
</linearGradient>
</defs>
</svg>
