<svg width="152" height="114" viewBox="0 0 152 114" fill="none" xmlns="http://www.w3.org/2000/svg">
<path d="M38.2346 81.5015H36.6296L37.1646 76.4638L39.572 71.7059L42.2469 68.0675L45.7242 65.2688L50.5389 61.3505L60.4815 52.536L63.8889 48.1982L66.0185 44.3424L68.5671 38.0766L67.658 44.5581L65.7856 49.5958L63.6458 54.3537L59.6335 60.5109L54.8187 65.8285L51.0739 69.4669L47.8641 72.8254L45.7242 75.0644L43.8518 77.3034L42.5143 79.2625L41.7119 80.6619L40.9094 82.3412L40.3744 82.9009L39.572 82.0613L38.2346 81.5015Z" fill="#D3EA5C"/>
<rect x="28.1306" y="97.9916" width="11.9063" height="5.29905" rx="1" fill="#4E595A"/>
<ellipse cx="34.0837" cy="103.026" rx="5.95313" ry="3.97429" fill="#4E595A"/>
<ellipse cx="34.084" cy="98.7865" rx="5.95313" ry="2.91448" fill="#4E595A"/>
<path d="M33.4384 82.0526H36.623L36.6296 79.527L37.1538 76.8703L39.0115 72.8397L42.1961 68.2332L49.8923 61.8993L55.4653 57.2929L60.5076 52.6864L63.6922 48.6558L66.0807 44.6251L68.7346 38.0033V30.2299L67.673 23.896L65.5499 19.0017L62.6307 13.8194L61.3038 12.3799L55.7962 7.22974L49.4074 3.37389L52.2807 5.18228L54.9346 8.63713L55.9961 10.9404L57.323 14.6831L57.4999 19.7613L57.323 23.3202L55.9961 27.9267L53.0769 31.9573L49.3615 35.988L45.1153 39.7307L39.5422 43.1856L34.2346 46.6404L29.4576 50.6711L25.4769 54.9897L23.0884 59.3082L21.4961 63.6268L21.2307 69.0969V73.4155L22.2923 76.2945L26.0076 81.1889L27.8653 83.4921L30.7846 82.0526H33.4384Z" fill="#01BACB"/>
<path d="M21.2964 73.7432L22.5742 76.6351L10.6155 63.051L6.90015 57.5808L6.63477 54.4138L7.16553 48.9437L9.02323 43.4735L12.2078 38.2912L16.454 33.9727L21.7617 29.942L25.2117 27.3509L29.1925 23.3202L32.1117 19.5775L33.2224 17.3514L34.0742 15.4234L34.5001 12.5315V9.63964L33.6483 8.19369L33.2224 6.26577L31.5187 4.81982L30.2409 3.37387L28.1113 2.89189L26.8335 2.40991L21.2965 2.40991L27.0694 0.575808L29.9886 0L38.4809 0L41.4002 0.575808L44.5848 1.43952L47.7694 2.59114L49.3617 3.45485L50.2594 3.85586L51.9631 4.81982L52.389 5.3018L52.815 5.78378L54.0927 7.22973L54.9446 8.67568L55.7964 10.1216L56.6483 12.5315L57.3232 14.6354L57.5001 16.8694V19.7613C57.5001 19.7613 57.5001 22.1064 57.3232 23.258L57.0742 25.0631L56.2224 27.473L55.3705 28.9189L54.0927 30.8468L52.815 32.2928L51.1113 34.2207L50.2594 35.1847L49.8335 35.6667L49.4076 36.1487L47.2779 38.0766L46.0001 39.0405L45.3809 39.7083L43.4446 40.9685L41.7409 41.9324L38.7594 43.8604L35.7779 45.7883L32.7964 47.7162L30.6668 49.6441L28.5372 51.5721L27.2594 53.018L26.4076 53.982L25.5557 54.9459L23.0001 60.2478L21.7224 63.6216V65.0676L21.2964 72.7793V73.7432Z" fill="#D3EA5C"/>
<path d="M6.63462 54.7018V57.2929L5.04231 54.7018L2.12308 47.7921L0.796154 42.8977L0 39.1549L0 32.2453L0.265385 28.2146L0.796154 24.1839L2.38846 19.8654L4.51154 15.8347L6.36923 12.9557L8.49231 10.6525L10.8808 8.34922L13.5346 6.33389L16.4538 4.31857L20.7 2.59114L22.5577 2.01534H24.6808L28.1308 2.30324L30.2538 3.45485L33.1731 6.33389L34.5 9.78874V12.9557L34.0741 15.4234L33.6481 16.3874L32.3704 19.2793L29.3889 23.1351L26.8333 26.027L23.8519 28.4369L16.1852 34.2207L12.3519 38.0766L8.94444 43.3784L7.24074 49.1622L6.63462 54.7018Z" fill="#01BACB"/>
<ellipse cx="34.4998" cy="83.4921" rx="6.36923" ry="2.59114" fill="#4E595A"/>
<path d="M67.18 107.56C65.1967 107.56 63.4233 107.035 61.86 105.985C60.32 104.912 59.1067 103.43 58.22 101.54C57.3567 99.65 56.925 97.5033 56.925 95.1C56.925 92.6967 57.3567 90.55 58.22 88.66C59.1067 86.7467 60.32 85.265 61.86 84.215C63.4233 83.1417 65.1967 82.605 67.18 82.605C69.1633 82.605 70.925 83.1417 72.465 84.215C74.0283 85.265 75.2417 86.7467 76.105 88.66C76.9917 90.55 77.435 92.7083 77.435 95.135C77.435 97.5383 76.9917 99.685 76.105 101.575C75.2417 103.442 74.0283 104.912 72.465 105.985C70.925 107.035 69.1633 107.56 67.18 107.56ZM67.18 105.145C68.6267 105.145 69.9217 104.725 71.065 103.885C72.2317 103.022 73.1417 101.832 73.795 100.315C74.4483 98.775 74.775 97.0367 74.775 95.1C74.775 93.1633 74.4483 91.425 73.795 89.885C73.1417 88.345 72.2317 87.1433 71.065 86.28C69.9217 85.4167 68.6267 84.985 67.18 84.985C65.7333 84.985 64.4267 85.4167 63.26 86.28C62.1167 87.1433 61.2183 88.345 60.565 89.885C59.9117 91.425 59.585 93.1633 59.585 95.1C59.585 97.0367 59.9117 98.775 60.565 100.315C61.2183 101.832 62.1167 103.022 63.26 103.885C64.4267 104.725 65.7333 105.145 67.18 105.145ZM95.9601 90.62V107H93.5801V104.27C93.0201 105.32 92.2735 106.137 91.3401 106.72C90.4301 107.28 89.3685 107.56 88.1551 107.56C87.0118 107.56 85.9501 107.327 84.9701 106.86C84.0135 106.393 83.2435 105.705 82.6601 104.795C82.1001 103.885 81.8201 102.812 81.8201 101.575V90.62H84.2001V100.525C84.2001 103.768 85.6468 105.39 88.5401 105.39C90.2201 105.39 91.4801 104.795 92.3201 103.605C93.1601 102.415 93.5801 100.817 93.5801 98.81V90.62H95.9601ZM107.444 90.06C108.914 90.06 110.244 90.4217 111.434 91.145C112.624 91.8683 113.557 92.86 114.234 94.12C114.911 95.3567 115.249 96.745 115.249 98.285C115.249 98.7283 115.237 99.0667 115.214 99.3H101.739C101.832 100.98 102.381 102.415 103.384 103.605C104.387 104.795 105.752 105.39 107.479 105.39C108.879 105.39 110.034 105.133 110.944 104.62C111.877 104.083 112.624 103.348 113.184 102.415L115.074 103.675C114.304 104.888 113.289 105.845 112.029 106.545C110.769 107.222 109.276 107.56 107.549 107.56C105.962 107.56 104.551 107.187 103.314 106.44C102.077 105.693 101.109 104.655 100.409 103.325C99.7089 101.995 99.3589 100.49 99.3589 98.81C99.3589 97.13 99.6973 95.625 100.374 94.295C101.074 92.965 102.031 91.9267 103.244 91.18C104.481 90.4333 105.881 90.06 107.444 90.06ZM112.869 97.34C112.636 95.6367 112.064 94.365 111.154 93.525C110.244 92.6617 109.007 92.23 107.444 92.23C105.927 92.23 104.679 92.72 103.699 93.7C102.742 94.6567 102.136 95.87 101.879 97.34H112.869ZM124.538 107.56C122.951 107.56 121.551 107.222 120.338 106.545C119.148 105.868 118.238 104.912 117.608 103.675L119.743 102.625C120.606 104.468 122.298 105.39 124.818 105.39C126.031 105.39 127.034 105.168 127.828 104.725C128.621 104.282 129.018 103.593 129.018 102.66C129.018 101.703 128.691 100.992 128.038 100.525C127.408 100.058 126.288 99.755 124.678 99.615C122.438 99.4283 120.828 98.9267 119.848 98.11C118.891 97.2933 118.413 96.2083 118.413 94.855C118.413 93.3383 118.961 92.16 120.058 91.32C121.154 90.48 122.659 90.06 124.573 90.06C127.816 90.06 130.021 91.3433 131.188 93.91L129.053 94.96C128.656 94.0267 128.073 93.3383 127.303 92.895C126.556 92.4517 125.588 92.23 124.398 92.23C123.184 92.23 122.251 92.4517 121.598 92.895C120.968 93.3383 120.653 93.9683 120.653 94.785C120.653 95.555 120.991 96.185 121.668 96.675C122.368 97.1417 123.558 97.445 125.238 97.585C127.314 97.7717 128.854 98.285 129.858 99.125C130.884 99.9417 131.398 101.027 131.398 102.38C131.398 103.477 131.083 104.422 130.453 105.215C129.823 105.985 128.983 106.568 127.933 106.965C126.883 107.362 125.751 107.56 124.538 107.56ZM135.873 107V92.79H133.073V90.62H135.873V85.195H138.253V90.62H142.033V92.79H138.253V107H135.873Z" fill="#4E595A"/>
<path d="M64.5361 95.5239L74.0934 102.619L71.4332 105.258L64.5361 95.5239Z" fill="#4E595A"/>
<path d="M80.99 112.353L71.4328 105.258L74.093 102.619L80.99 112.353Z" fill="#4E595A"/>
<path d="M67.9061 98.8105L73.3551 103.351L72.3298 104.368L67.9061 98.8105Z" fill="#F0F3E0"/>
<path d="M77.7797 108.908L72.3307 104.368L73.356 103.351L77.7797 108.908Z" fill="#F0F3E0"/>
</svg>
