<svg width="906" height="403" viewBox="0 0 906 403" fill="none" xmlns="http://www.w3.org/2000/svg">
<rect width="120" height="120" rx="60" fill="#01BACB"/>
<rect y="236" width="120" height="120" rx="60" fill="#DFE8E3"/>
<path d="M37.3101 163.3L37.9901 158.78H35.5501L34.8701 163.3H33.6301L34.3101 158.78H32.8701L33.1301 157.54H34.5101L34.9701 154.46H33.4901L33.7101 153.22H35.1701L35.8701 148.7H37.0901L36.4101 153.22H38.8501L39.5501 148.7H40.8101L40.1101 153.22H41.5701L41.3101 154.46H39.9101L39.4501 157.54H40.9301L40.6701 158.78H39.2501L38.5701 163.3H37.3101ZM36.2101 154.46L35.7501 157.54H38.1901L38.6501 154.46H36.2101ZM49.3552 153.18V158.82C49.3552 160.513 49.0819 161.687 48.5352 162.34C48.0019 162.98 47.2286 163.3 46.2152 163.3C45.2152 163.3 44.4419 162.98 43.8952 162.34C43.3619 161.687 43.0952 160.513 43.0952 158.82V153.18C43.0952 151.487 43.3619 150.32 43.8952 149.68C44.4419 149.027 45.2152 148.7 46.2152 148.7C47.2286 148.7 48.0019 149.027 48.5352 149.68C49.0819 150.32 49.3552 151.487 49.3552 153.18ZM47.7752 159.12V152.88C47.7752 150.96 47.2619 150 46.2352 150C45.7419 150 45.3552 150.207 45.0752 150.62C44.8086 151.033 44.6752 151.787 44.6752 152.88V159.12C44.6752 160.213 44.8086 160.967 45.0752 161.38C45.3552 161.793 45.7419 162 46.2352 162C47.2619 162 47.7752 161.04 47.7752 159.12ZM53.7779 149V163H52.1779V150.78H50.4579V149.86L52.8979 149H53.7779ZM56.3049 163V149H58.5849C59.5849 149 60.3516 149.28 60.8849 149.84C61.4316 150.4 61.7049 151.38 61.7049 152.78C61.7049 154.407 61.1383 155.407 60.0049 155.78C61.3383 156.073 62.0049 157.147 62.0049 159C62.0049 160.48 61.7316 161.52 61.1849 162.12C60.6383 162.707 59.8783 163 58.9049 163H56.3049ZM60.4449 159.38V158.84C60.4449 157.173 59.9183 156.34 58.8649 156.34H57.9049V161.74H58.8649C59.3716 161.74 59.7583 161.567 60.0249 161.22C60.3049 160.873 60.4449 160.26 60.4449 159.38ZM60.2249 152.94V152.46C60.2249 151.62 60.0916 151.047 59.8249 150.74C59.5583 150.42 59.1783 150.26 58.6849 150.26H57.9049V155.28H58.6849C59.7116 155.28 60.2249 154.5 60.2249 152.94ZM68.6416 163L68.0216 159.36H65.2016L64.6016 163H63.0016L65.5616 149H67.6816L70.2416 163H68.6416ZM66.6216 151.02L65.4216 158.08H67.8016L66.6216 151.02ZM73.1127 159.14C73.1127 160.233 73.2394 160.987 73.4927 161.4C73.7461 161.8 74.1061 162 74.5727 162C75.0394 162 75.3861 161.827 75.6127 161.48C75.8527 161.12 76.0127 160.447 76.0927 159.46L77.4927 159.64C77.3727 161 77.0661 161.953 76.5727 162.5C76.0927 163.033 75.3994 163.3 74.4927 163.3C73.5861 163.3 72.8661 162.973 72.3327 162.32C71.7994 161.667 71.5327 160.467 71.5327 158.72V153.28C71.5327 151.533 71.7994 150.333 72.3327 149.68C72.8661 149.027 73.5794 148.7 74.4727 148.7C75.3794 148.7 76.0661 148.933 76.5327 149.4C77.0127 149.867 77.3061 150.7 77.4127 151.9L75.9527 152.26C75.8727 151.407 75.7194 150.82 75.4927 150.5C75.2794 150.167 74.9527 150 74.5127 150C74.0861 150 73.7461 150.213 73.4927 150.64C73.2394 151.053 73.1127 151.82 73.1127 152.94V159.14ZM79.2932 163V149H81.5732C82.5732 149 83.3399 149.28 83.8732 149.84C84.4199 150.4 84.6932 151.38 84.6932 152.78C84.6932 154.407 84.1265 155.407 82.9932 155.78C84.3265 156.073 84.9932 157.147 84.9932 159C84.9932 160.48 84.7199 161.52 84.1732 162.12C83.6265 162.707 82.8665 163 81.8932 163H79.2932ZM83.4332 159.38V158.84C83.4332 157.173 82.9065 156.34 81.8532 156.34H80.8932V161.74H81.8532C82.3599 161.74 82.7465 161.567 83.0132 161.22C83.2932 160.873 83.4332 160.26 83.4332 159.38ZM83.2132 152.94V152.46C83.2132 151.62 83.0799 151.047 82.8132 150.74C82.5465 150.42 82.1665 150.26 81.6732 150.26H80.8932V155.28H81.6732C82.6999 155.28 83.2132 154.5 83.2132 152.94Z" fill="#1F2D3D"/>
<path d="M36.353 399.3L37.033 394.78H34.593L33.913 399.3H32.673L33.353 394.78H31.913L32.173 393.54H33.553L34.013 390.46H32.533L32.753 389.22H34.213L34.913 384.7H36.133L35.453 389.22H37.893L38.593 384.7H39.853L39.153 389.22H40.613L40.353 390.46H38.953L38.493 393.54H39.973L39.713 394.78H38.293L37.613 399.3H36.353ZM35.253 390.46L34.793 393.54H37.233L37.693 390.46H35.253ZM42.4182 399V385H45.1382C46.1515 385 46.9315 385.327 47.4782 385.98C48.0249 386.62 48.2982 387.787 48.2982 389.48V394.52C48.2982 396.213 48.0249 397.387 47.4782 398.04C46.9315 398.68 46.1515 399 45.1382 399H42.4182ZM46.7182 394.88V389.14C46.7182 387.233 46.1915 386.28 45.1382 386.28H44.0182V397.74H45.1382C46.1915 397.74 46.7182 396.787 46.7182 394.88ZM52.1432 392.66V399H50.5432V385H55.3432V386.28H52.1432V391.38H55.0432V392.66H52.1432ZM58.608 392.66V397.72H62.088V399H57.008V385H62.028V386.28H58.608V391.38H61.728V392.66H58.608ZM70.0355 388.36C70.0355 390.187 69.5422 391.32 68.5555 391.76C69.7155 392.227 70.2955 393.447 70.2955 395.42C70.2955 396.887 70.0155 397.9 69.4555 398.46C68.9089 399.02 68.1222 399.3 67.0955 399.3C66.0689 399.3 65.2822 399.02 64.7355 398.46C64.1889 397.9 63.9155 396.887 63.9155 395.42C63.9155 393.407 64.4889 392.187 65.6355 391.76C64.6755 391.307 64.1955 390.173 64.1955 388.36C64.1955 386.973 64.4422 386.02 64.9355 385.5C65.4422 384.967 66.1622 384.7 67.0955 384.7C68.0422 384.7 68.7689 384.967 69.2755 385.5C69.7822 386.02 70.0355 386.973 70.0355 388.36ZM68.7155 395.54V394.92C68.7155 393.973 68.5755 393.32 68.2955 392.96C68.0155 392.587 67.6155 392.4 67.0955 392.4C66.5889 392.4 66.1955 392.587 65.9155 392.96C65.6355 393.32 65.4955 393.973 65.4955 394.92V395.54C65.4955 396.487 65.6355 397.147 65.9155 397.52C66.1955 397.88 66.5889 398.06 67.0955 398.06C67.6155 398.06 68.0155 397.88 68.2955 397.52C68.5755 397.147 68.7155 396.487 68.7155 395.54ZM68.4955 388.92V388.2C68.4955 387.333 68.3755 386.74 68.1355 386.42C67.8955 386.1 67.5489 385.94 67.0955 385.94C66.6555 385.94 66.3155 386.1 66.0755 386.42C65.8355 386.74 65.7155 387.333 65.7155 388.2V388.92C65.7155 389.787 65.8355 390.38 66.0755 390.7C66.3155 391.02 66.6555 391.18 67.0955 391.18C67.5489 391.18 67.8955 391.02 68.1355 390.7C68.3755 390.38 68.4955 389.787 68.4955 388.92ZM74.1354 392.66V397.72H77.6154V399H72.5354V385H77.5554V386.28H74.1354V391.38H77.2554V392.66H74.1354ZM82.4029 398C83.4962 398 84.0429 397.247 84.0429 395.74V395.18C84.0429 394.153 83.8962 393.46 83.6029 393.1C83.3229 392.727 82.9096 392.54 82.3629 392.54H81.4229V391.3H82.3829C82.8496 391.273 83.2162 391.087 83.4829 390.74C83.7496 390.38 83.8829 389.767 83.8829 388.9V388.3C83.8829 386.727 83.4096 385.94 82.4629 385.94C81.9962 385.94 81.6296 386.133 81.3629 386.52C81.1096 386.893 80.9496 387.58 80.8829 388.58L79.4629 388.36C79.5829 386.987 79.8896 386.033 80.3829 385.5C80.8762 384.967 81.5829 384.7 82.5029 384.7C83.4229 384.7 84.1362 384.98 84.6429 385.54C85.1629 386.087 85.4229 387.12 85.4229 388.64C85.4229 390.16 85.0362 391.187 84.2629 391.72C85.1829 392.267 85.6429 393.487 85.6429 395.38C85.6429 396.82 85.3496 397.833 84.7629 398.42C84.1896 399.007 83.4229 399.3 82.4629 399.3C81.5162 399.3 80.7962 399.033 80.3029 398.5C79.8096 397.967 79.5096 397.013 79.4029 395.64L80.8229 395.44C80.9029 396.44 81.0629 397.12 81.3029 397.48C81.5562 397.827 81.9229 398 82.4029 398Z" fill="#1F2D3D"/>
<path d="M230.019 399.3L230.699 394.78H228.259L227.579 399.3H226.339L227.019 394.78H225.579L225.839 393.54H227.219L227.679 390.46H226.199L226.419 389.22H227.879L228.579 384.7H229.799L229.119 389.22H231.559L232.259 384.7H233.519L232.819 389.22H234.279L234.019 390.46H232.619L232.159 393.54H233.639L233.379 394.78H231.959L231.279 399.3H230.019ZM228.919 390.46L228.459 393.54H230.899L231.359 390.46H228.919ZM239.444 399V395.72H234.964V394.96L238.324 385H241.024V394.44H241.844V395.72H241.024V399H239.444ZM239.444 394.44V386.12L236.604 394.44H239.444ZM246.342 398C247.436 398 247.982 397.247 247.982 395.74V395.18C247.982 394.153 247.836 393.46 247.542 393.1C247.262 392.727 246.849 392.54 246.302 392.54H245.362V391.3H246.322C246.789 391.273 247.156 391.087 247.422 390.74C247.689 390.38 247.822 389.767 247.822 388.9V388.3C247.822 386.727 247.349 385.94 246.402 385.94C245.936 385.94 245.569 386.133 245.302 386.52C245.049 386.893 244.889 387.58 244.822 388.58L243.402 388.36C243.522 386.987 243.829 386.033 244.322 385.5C244.816 384.967 245.522 384.7 246.442 384.7C247.362 384.7 248.076 384.98 248.582 385.54C249.102 386.087 249.362 387.12 249.362 388.64C249.362 390.16 248.976 391.187 248.202 391.72C249.122 392.267 249.582 393.487 249.582 395.38C249.582 396.82 249.289 397.833 248.702 398.42C248.129 399.007 247.362 399.3 246.402 399.3C245.456 399.3 244.736 399.033 244.242 398.5C243.749 397.967 243.449 397.013 243.342 395.64L244.762 395.44C244.842 396.44 245.002 397.12 245.242 397.48C245.496 397.827 245.862 398 246.342 398ZM255.186 399V395.72H250.706V394.96L254.066 385H256.766V394.44H257.586V395.72H256.766V399H255.186ZM255.186 394.44V386.12L252.346 394.44H255.186ZM258.525 386.28V385H264.345V385.76L261.105 399H259.485L262.765 386.28H258.525ZM269.425 399V395.72H264.945V394.96L268.305 385H271.005V394.44H271.825V395.72H271.005V399H269.425ZM269.425 394.44V386.12L266.585 394.44H269.425ZM277.003 399V395.72H272.523V394.96L275.883 385H278.583V394.44H279.403V395.72H278.583V399H277.003ZM277.003 394.44V386.12L274.163 394.44H277.003Z" fill="#1F2D3D"/>
<path d="M421.408 399.3L422.088 394.78H419.648L418.968 399.3H417.728L418.408 394.78H416.968L417.228 393.54H418.608L419.068 390.46H417.588L417.808 389.22H419.268L419.968 384.7H421.188L420.508 389.22H422.948L423.648 384.7H424.908L424.208 389.22H425.668L425.408 390.46H424.008L423.548 393.54H425.028L424.768 394.78H423.348L422.668 399.3H421.408ZM420.308 390.46L419.848 393.54H422.288L422.748 390.46H420.308ZM428.773 395.14C428.773 396.233 428.9 396.987 429.153 397.4C429.406 397.8 429.766 398 430.233 398C430.7 398 431.046 397.827 431.273 397.48C431.513 397.12 431.673 396.447 431.753 395.46L433.153 395.64C433.033 397 432.726 397.953 432.233 398.5C431.753 399.033 431.06 399.3 430.153 399.3C429.246 399.3 428.526 398.973 427.993 398.32C427.46 397.667 427.193 396.467 427.193 394.72V389.28C427.193 387.533 427.46 386.333 427.993 385.68C428.526 385.027 429.24 384.7 430.133 384.7C431.04 384.7 431.726 384.933 432.193 385.4C432.673 385.867 432.966 386.7 433.073 387.9L431.613 388.26C431.533 387.407 431.38 386.82 431.153 386.5C430.94 386.167 430.613 386 430.173 386C429.746 386 429.406 386.213 429.153 386.64C428.9 387.053 428.773 387.82 428.773 388.94V395.14ZM440.793 394.72C440.793 396.467 440.52 397.667 439.973 398.32C439.44 398.973 438.693 399.3 437.733 399.3C436.787 399.3 436.06 399.033 435.553 398.5C435.047 397.967 434.727 397.013 434.593 395.64L435.993 395.44C436.1 396.44 436.28 397.12 436.533 397.48C436.787 397.827 437.16 398 437.653 398C438.16 398 438.547 397.793 438.813 397.38C439.093 396.953 439.233 396.18 439.233 395.06V392.46C438.793 392.953 438.16 393.2 437.333 393.2C436.52 393.2 435.847 392.893 435.313 392.28C434.793 391.667 434.533 390.56 434.533 388.96C434.533 387.347 434.807 386.233 435.353 385.62C435.913 385.007 436.693 384.7 437.693 384.7C438.693 384.7 439.46 385.007 439.993 385.62C440.527 386.233 440.793 387.353 440.793 388.98V394.72ZM436.053 388.7V389.2C436.053 391.04 436.587 391.96 437.653 391.96C438.133 391.96 438.513 391.773 438.793 391.4C439.073 391.013 439.22 390.333 439.233 389.36V388.7C439.233 386.86 438.7 385.94 437.633 385.94C436.58 385.94 436.053 386.86 436.053 388.7ZM443.039 399V385H445.759C446.773 385 447.553 385.327 448.099 385.98C448.646 386.62 448.919 387.787 448.919 389.48V394.52C448.919 396.213 448.646 397.387 448.099 398.04C447.553 398.68 446.773 399 445.759 399H443.039ZM447.339 394.88V389.14C447.339 387.233 446.813 386.28 445.759 386.28H444.639V397.74H445.759C446.813 397.74 447.339 396.787 447.339 394.88ZM453.344 385V399H451.744V386.78H450.024V385.86L452.464 385H453.344ZM457.171 395.14C457.171 396.233 457.298 396.987 457.551 397.4C457.805 397.8 458.165 398 458.631 398C459.098 398 459.445 397.827 459.671 397.48C459.911 397.12 460.071 396.447 460.151 395.46L461.551 395.64C461.431 397 461.125 397.953 460.631 398.5C460.151 399.033 459.458 399.3 458.551 399.3C457.645 399.3 456.925 398.973 456.391 398.32C455.858 397.667 455.591 396.467 455.591 394.72V389.28C455.591 387.533 455.858 386.333 456.391 385.68C456.925 385.027 457.638 384.7 458.531 384.7C459.438 384.7 460.125 384.933 460.591 385.4C461.071 385.867 461.365 386.7 461.471 387.9L460.011 388.26C459.931 387.407 459.778 386.82 459.551 386.5C459.338 386.167 459.011 386 458.571 386C458.145 386 457.805 386.213 457.551 386.64C457.298 387.053 457.171 387.82 457.171 388.94V395.14ZM464.652 395.14C464.652 396.233 464.778 396.987 465.032 397.4C465.285 397.8 465.645 398 466.112 398C466.578 398 466.925 397.827 467.152 397.48C467.392 397.12 467.552 396.447 467.632 395.46L469.032 395.64C468.912 397 468.605 397.953 468.112 398.5C467.632 399.033 466.938 399.3 466.032 399.3C465.125 399.3 464.405 398.973 463.872 398.32C463.338 397.667 463.072 396.467 463.072 394.72V389.28C463.072 387.533 463.338 386.333 463.872 385.68C464.405 385.027 465.118 384.7 466.012 384.7C466.918 384.7 467.605 384.933 468.072 385.4C468.552 385.867 468.845 386.7 468.952 387.9L467.492 388.26C467.412 387.407 467.258 386.82 467.032 386.5C466.818 386.167 466.492 386 466.052 386C465.625 386 465.285 386.213 465.032 386.64C464.778 387.053 464.652 387.82 464.652 388.94V395.14Z" fill="#1F2D3D"/>
<rect x="192" width="120" height="120" rx="60" fill="#D3EA5C"/>
<rect x="192" y="236" width="120" height="120" rx="60" fill="#434744"/>
<path d="M228.394 163.3L229.074 158.78H226.634L225.954 163.3H224.714L225.394 158.78H223.954L224.214 157.54H225.594L226.054 154.46H224.574L224.794 153.22H226.254L226.954 148.7H228.174L227.494 153.22H229.934L230.634 148.7H231.894L231.194 153.22H232.654L232.394 154.46H230.994L230.534 157.54H232.014L231.754 158.78H230.334L229.654 163.3H228.394ZM227.294 154.46L226.834 157.54H229.274L229.734 154.46H227.294ZM234.459 163V149H237.179C238.193 149 238.973 149.327 239.519 149.98C240.066 150.62 240.339 151.787 240.339 153.48V158.52C240.339 160.213 240.066 161.387 239.519 162.04C238.973 162.68 238.193 163 237.179 163H234.459ZM238.759 158.88V153.14C238.759 151.233 238.233 150.28 237.179 150.28H236.059V161.74H237.179C238.233 161.74 238.759 160.787 238.759 158.88ZM245.264 162C246.358 162 246.904 161.247 246.904 159.74V159.18C246.904 158.153 246.758 157.46 246.464 157.1C246.184 156.727 245.771 156.54 245.224 156.54H244.284V155.3H245.244C245.711 155.273 246.078 155.087 246.344 154.74C246.611 154.38 246.744 153.767 246.744 152.9V152.3C246.744 150.727 246.271 149.94 245.324 149.94C244.858 149.94 244.491 150.133 244.224 150.52C243.971 150.893 243.811 151.58 243.744 152.58L242.324 152.36C242.444 150.987 242.751 150.033 243.244 149.5C243.738 148.967 244.444 148.7 245.364 148.7C246.284 148.7 246.998 148.98 247.504 149.54C248.024 150.087 248.284 151.12 248.284 152.64C248.284 154.16 247.898 155.187 247.124 155.72C248.044 156.267 248.504 157.487 248.504 159.38C248.504 160.82 248.211 161.833 247.624 162.42C247.051 163.007 246.284 163.3 245.324 163.3C244.378 163.3 243.658 163.033 243.164 162.5C242.671 161.967 242.371 161.013 242.264 159.64L243.684 159.44C243.764 160.44 243.924 161.12 244.164 161.48C244.418 161.827 244.784 162 245.264 162ZM252.348 156.66V161.72H255.828V163H250.748V149H255.768V150.28H252.348V155.38H255.468V156.66H252.348ZM262.636 163L262.016 159.36H259.196L258.596 163H256.996L259.556 149H261.676L264.236 163H262.636ZM260.616 151.02L259.416 158.08H261.796L260.616 151.02ZM265.767 156.32V149H271.167V150.28H267.227V155.08H268.287C269.3 155.08 270.074 155.353 270.607 155.9C271.14 156.433 271.407 157.487 271.407 159.06C271.407 160.62 271.134 161.72 270.587 162.36C270.054 162.987 269.327 163.3 268.407 163.3C267.487 163.3 266.78 163.033 266.287 162.5C265.794 161.953 265.494 161 265.387 159.64L266.787 159.46C266.867 160.46 267.027 161.133 267.267 161.48C267.507 161.827 267.86 162 268.327 162C268.807 162 269.18 161.8 269.447 161.4C269.727 160.987 269.867 160.247 269.867 159.18V158.74C269.867 157.833 269.734 157.207 269.467 156.86C269.2 156.5 268.807 156.32 268.287 156.32H265.767ZM274.665 159.14C274.665 160.233 274.792 160.987 275.045 161.4C275.299 161.8 275.659 162 276.125 162C276.592 162 276.939 161.827 277.165 161.48C277.405 161.12 277.565 160.447 277.645 159.46L279.045 159.64C278.925 161 278.619 161.953 278.125 162.5C277.645 163.033 276.952 163.3 276.045 163.3C275.139 163.3 274.419 162.973 273.885 162.32C273.352 161.667 273.085 160.467 273.085 158.72V153.28C273.085 151.533 273.352 150.333 273.885 149.68C274.419 149.027 275.132 148.7 276.025 148.7C276.932 148.7 277.619 148.933 278.085 149.4C278.565 149.867 278.859 150.7 278.965 151.9L277.505 152.26C277.425 151.407 277.272 150.82 277.045 150.5C276.832 150.167 276.505 150 276.065 150C275.639 150 275.299 150.213 275.045 150.64C274.792 151.053 274.665 151.82 274.665 152.94V159.14Z" fill="#1F2D3D"/>
<rect x="384" width="120" height="120" rx="60" fill="#F71735"/>
<rect x="384" y="237" width="120" height="120" rx="60" fill="#C9D1CC"/>
<path d="M422.98 163.3L423.66 158.78H421.22L420.54 163.3H419.3L419.98 158.78H418.54L418.8 157.54H420.18L420.64 154.46H419.16L419.38 153.22H420.84L421.54 148.7H422.76L422.08 153.22H424.52L425.22 148.7H426.48L425.78 153.22H427.24L426.98 154.46H425.58L425.12 157.54H426.6L426.34 158.78H424.92L424.24 163.3H422.98ZM421.88 154.46L421.42 157.54H423.86L424.32 154.46H421.88ZM430.645 156.66V163H429.045V149H433.845V150.28H430.645V155.38H433.545V156.66H430.645ZM434.63 150.28V149H440.45V149.76L437.21 163H435.59L438.87 150.28H434.63ZM444.35 149V163H442.75V150.78H441.03V149.86L443.47 149H444.35ZM445.997 150.28V149H451.817V149.76L448.577 163H446.957L450.237 150.28H445.997ZM456.217 162C457.311 162 457.857 161.247 457.857 159.74V159.18C457.857 158.153 457.711 157.46 457.417 157.1C457.137 156.727 456.724 156.54 456.177 156.54H455.237V155.3H456.197C456.664 155.273 457.031 155.087 457.297 154.74C457.564 154.38 457.697 153.767 457.697 152.9V152.3C457.697 150.727 457.224 149.94 456.277 149.94C455.811 149.94 455.444 150.133 455.177 150.52C454.924 150.893 454.764 151.58 454.697 152.58L453.277 152.36C453.397 150.987 453.704 150.033 454.197 149.5C454.691 148.967 455.397 148.7 456.317 148.7C457.237 148.7 457.951 148.98 458.457 149.54C458.977 150.087 459.237 151.12 459.237 152.64C459.237 154.16 458.851 155.187 458.077 155.72C458.997 156.267 459.457 157.487 459.457 159.38C459.457 160.82 459.164 161.833 458.577 162.42C458.004 163.007 457.237 163.3 456.277 163.3C455.331 163.3 454.611 163.033 454.117 162.5C453.624 161.967 453.324 161.013 453.217 159.64L454.637 159.44C454.717 160.44 454.877 161.12 455.117 161.48C455.371 161.827 455.737 162 456.217 162ZM461.661 156.32V149H467.061V150.28H463.121V155.08H464.181C465.195 155.08 465.968 155.353 466.501 155.9C467.035 156.433 467.301 157.487 467.301 159.06C467.301 160.62 467.028 161.72 466.481 162.36C465.948 162.987 465.221 163.3 464.301 163.3C463.381 163.3 462.675 163.033 462.181 162.5C461.688 161.953 461.388 161 461.281 159.64L462.681 159.46C462.761 160.46 462.921 161.133 463.161 161.48C463.401 161.827 463.755 162 464.221 162C464.701 162 465.075 161.8 465.341 161.4C465.621 160.987 465.761 160.247 465.761 159.18V158.74C465.761 157.833 465.628 157.207 465.361 156.86C465.095 156.5 464.701 156.32 464.181 156.32H461.661Z" fill="#1F2D3D"/>
<rect x="572" width="120" height="120" rx="60" fill="#14080E"/>
<path d="M609.459 163.3L610.139 158.78H607.699L607.019 163.3H605.779L606.459 158.78H605.019L605.279 157.54H606.659L607.119 154.46H605.639L605.859 153.22H607.319L608.019 148.7H609.239L608.559 153.22H610.999L611.699 148.7H612.959L612.259 153.22H613.719L613.459 154.46H612.059L611.599 157.54H613.079L612.819 158.78H611.399L610.719 163.3H609.459ZM608.359 154.46L607.899 157.54H610.339L610.799 154.46H608.359ZM617.704 149V163H616.104V150.78H614.384V149.86L616.824 149H617.704ZM623.591 163V159.72H619.111V158.96L622.471 149H625.171V158.44H625.991V159.72H625.171V163H623.591ZM623.591 158.44V150.12L620.751 158.44H623.591ZM633.789 153.18V158.82C633.789 160.513 633.515 161.687 632.969 162.34C632.435 162.98 631.662 163.3 630.649 163.3C629.649 163.3 628.875 162.98 628.329 162.34C627.795 161.687 627.529 160.513 627.529 158.82V153.18C627.529 151.487 627.795 150.32 628.329 149.68C628.875 149.027 629.649 148.7 630.649 148.7C631.662 148.7 632.435 149.027 632.969 149.68C633.515 150.32 633.789 151.487 633.789 153.18ZM632.209 159.12V152.88C632.209 150.96 631.695 150 630.669 150C630.175 150 629.789 150.207 629.509 150.62C629.242 151.033 629.109 151.787 629.109 152.88V159.12C629.109 160.213 629.242 160.967 629.509 161.38C629.789 161.793 630.175 162 630.669 162C631.695 162 632.209 161.04 632.209 159.12ZM641.871 152.36C641.871 154.187 641.378 155.32 640.391 155.76C641.551 156.227 642.131 157.447 642.131 159.42C642.131 160.887 641.851 161.9 641.291 162.46C640.745 163.02 639.958 163.3 638.931 163.3C637.905 163.3 637.118 163.02 636.571 162.46C636.025 161.9 635.751 160.887 635.751 159.42C635.751 157.407 636.325 156.187 637.471 155.76C636.511 155.307 636.031 154.173 636.031 152.36C636.031 150.973 636.278 150.02 636.771 149.5C637.278 148.967 637.998 148.7 638.931 148.7C639.878 148.7 640.605 148.967 641.111 149.5C641.618 150.02 641.871 150.973 641.871 152.36ZM640.551 159.54V158.92C640.551 157.973 640.411 157.32 640.131 156.96C639.851 156.587 639.451 156.4 638.931 156.4C638.425 156.4 638.031 156.587 637.751 156.96C637.471 157.32 637.331 157.973 637.331 158.92V159.54C637.331 160.487 637.471 161.147 637.751 161.52C638.031 161.88 638.425 162.06 638.931 162.06C639.451 162.06 639.851 161.88 640.131 161.52C640.411 161.147 640.551 160.487 640.551 159.54ZM640.331 152.92V152.2C640.331 151.333 640.211 150.74 639.971 150.42C639.731 150.1 639.385 149.94 638.931 149.94C638.491 149.94 638.151 150.1 637.911 150.42C637.671 150.74 637.551 151.333 637.551 152.2V152.92C637.551 153.787 637.671 154.38 637.911 154.7C638.151 155.02 638.491 155.18 638.931 155.18C639.385 155.18 639.731 155.02 639.971 154.7C640.211 154.38 640.331 153.787 640.331 152.92ZM650.351 153.18V158.82C650.351 160.513 650.078 161.687 649.531 162.34C648.998 162.98 648.225 163.3 647.211 163.3C646.211 163.3 645.438 162.98 644.891 162.34C644.358 161.687 644.091 160.513 644.091 158.82V153.18C644.091 151.487 644.358 150.32 644.891 149.68C645.438 149.027 646.211 148.7 647.211 148.7C648.225 148.7 648.998 149.027 649.531 149.68C650.078 150.32 650.351 151.487 650.351 153.18ZM648.771 159.12V152.88C648.771 150.96 648.258 150 647.231 150C646.738 150 646.351 150.207 646.071 150.62C645.805 151.033 645.671 151.787 645.671 152.88V159.12C645.671 160.213 645.805 160.967 646.071 161.38C646.351 161.793 646.738 162 647.231 162C648.258 162 648.771 161.04 648.771 159.12ZM654.194 156.66V161.72H657.674V163H652.594V149H657.614V150.28H654.194V155.38H657.314V156.66H654.194Z" fill="#1F2D3D"/>
<rect x="786" width="120" height="120" rx="60" fill="#F1B648"/>
<path d="M824.181 163.3L824.861 158.78H822.421L821.741 163.3H820.501L821.181 158.78H819.741L820.001 157.54H821.381L821.841 154.46H820.361L820.581 153.22H822.041L822.741 148.7H823.961L823.281 153.22H825.721L826.421 148.7H827.681L826.981 153.22H828.441L828.181 154.46H826.781L826.321 157.54H827.801L827.541 158.78H826.121L825.441 163.3H824.181ZM823.081 154.46L822.621 157.54H825.061L825.521 154.46H823.081ZM831.846 156.66V163H830.246V149H835.046V150.28H831.846V155.38H834.746V156.66H831.846ZM838.891 149V163H837.291V150.78H835.571V149.86L838.011 149H838.891ZM841.418 163V149H843.698C844.698 149 845.465 149.28 845.998 149.84C846.545 150.4 846.818 151.38 846.818 152.78C846.818 154.407 846.252 155.407 845.118 155.78C846.452 156.073 847.118 157.147 847.118 159C847.118 160.48 846.845 161.52 846.298 162.12C845.752 162.707 844.992 163 844.018 163H841.418ZM845.558 159.38V158.84C845.558 157.173 845.032 156.34 843.978 156.34H843.018V161.74H843.978C844.485 161.74 844.872 161.567 845.138 161.22C845.418 160.873 845.558 160.26 845.558 159.38ZM845.338 152.94V152.46C845.338 151.62 845.205 151.047 844.938 150.74C844.672 150.42 844.292 150.26 843.798 150.26H843.018V155.28H843.798C844.825 155.28 845.338 154.5 845.338 152.94ZM852.255 154.8C853.068 154.8 853.735 155.107 854.255 155.72C854.775 156.333 855.035 157.447 855.035 159.06C855.035 160.66 854.762 161.767 854.215 162.38C853.668 162.993 852.895 163.3 851.895 163.3C850.895 163.3 850.122 162.993 849.575 162.38C849.042 161.767 848.775 160.647 848.775 159.02V153.28C848.775 151.547 849.048 150.353 849.595 149.7C850.142 149.033 850.868 148.7 851.775 148.7C852.695 148.7 853.395 148.94 853.875 149.42C854.368 149.887 854.668 150.727 854.775 151.94L853.315 152.3C853.262 151.433 853.115 150.833 852.875 150.5C852.648 150.167 852.302 150 851.835 150C851.382 150 851.022 150.213 850.755 150.64C850.488 151.053 850.355 151.82 850.355 152.94V155.54C850.808 155.047 851.442 154.8 852.255 154.8ZM853.515 159.3V158.8C853.515 156.96 852.988 156.04 851.935 156.04C850.895 156.04 850.368 156.907 850.355 158.64V159.3C850.355 161.14 850.882 162.06 851.935 162.06C852.988 162.06 853.515 161.14 853.515 159.3ZM860.501 163V159.72H856.021V158.96L859.381 149H862.081V158.44H862.901V159.72H862.081V163H860.501ZM860.501 158.44V150.12L857.661 158.44H860.501ZM870.559 152.36C870.559 154.187 870.066 155.32 869.079 155.76C870.239 156.227 870.819 157.447 870.819 159.42C870.819 160.887 870.539 161.9 869.979 162.46C869.432 163.02 868.646 163.3 867.619 163.3C866.592 163.3 865.806 163.02 865.259 162.46C864.712 161.9 864.439 160.887 864.439 159.42C864.439 157.407 865.012 156.187 866.159 155.76C865.199 155.307 864.719 154.173 864.719 152.36C864.719 150.973 864.966 150.02 865.459 149.5C865.966 148.967 866.686 148.7 867.619 148.7C868.566 148.7 869.292 148.967 869.799 149.5C870.306 150.02 870.559 150.973 870.559 152.36ZM869.239 159.54V158.92C869.239 157.973 869.099 157.32 868.819 156.96C868.539 156.587 868.139 156.4 867.619 156.4C867.112 156.4 866.719 156.587 866.439 156.96C866.159 157.32 866.019 157.973 866.019 158.92V159.54C866.019 160.487 866.159 161.147 866.439 161.52C866.719 161.88 867.112 162.06 867.619 162.06C868.139 162.06 868.539 161.88 868.819 161.52C869.099 161.147 869.239 160.487 869.239 159.54ZM869.019 152.92V152.2C869.019 151.333 868.899 150.74 868.659 150.42C868.419 150.1 868.072 149.94 867.619 149.94C867.179 149.94 866.839 150.1 866.599 150.42C866.359 150.74 866.239 151.333 866.239 152.2V152.92C866.239 153.787 866.359 154.38 866.599 154.7C866.839 155.02 867.179 155.18 867.619 155.18C868.072 155.18 868.419 155.02 868.659 154.7C868.899 154.38 869.019 153.787 869.019 152.92Z" fill="#1F2D3D"/>
</svg>
